<svg version="1" xmlns="http://www.w3.org/2000/svg" width="800" height="800" viewBox="0 0 600.000000 600.000000"><path d="M140.8 122.5c-.3.3-3.9 1-7.9 1.5-7.6 1-19.1 3.1-26.9 5-2.5.5-7 1.5-10.1 2-3.1.6-7.6 1.7-10 2.6-5.6 2-16.5 4.4-20.4 4.4-3.4 0-8.7 1.7-16.8 5.4-3.1 1.4-6 2.6-6.6 2.6-.5 0-1.1.3-1.3.7-.1.5-3.4 2.3-7.1 4.2-11 5.4-21.4 16.1-24.4 25.1-.8 2.3-1.4 15.6-1.7 38.3-.3 19.2-.8 35.3-1.1 35.7-.7 1.1-2.5 28.4-3.2 47.4-.3 8.5-.1 13.2.6 13.9.6.6 1.1 1.9 1.1 2.9 0 2 2.8 6.8 4 6.8.4 0 4.7 2.3 9.6 5.1 15.7 9.1 68.3 35 83.2 41 9.4 3.8 11.6 4.6 14.5 5.8 12.5 5.3 18 7.7 22.7 10.2 15.9 8.2 78.2 38.4 82.8 40.1 4.4 1.6 6.9 1.9 13.5 1.5 4.5-.3 10.3-1 13-1.6 4.9-1.1 12.7-2.8 16.2-3.5 2.1-.4 7.5-1.8 14-3.6 2.2-.6 6-1.6 8.5-2.1 2.5-.6 5.4-1.4 6.5-1.9 1.1-.4 2.9-1.1 4-1.3 5.5-1.4 17.2-4.8 19-5.6 7.8-3.3 15.5-5.7 16.4-5.1.6.3 1.4 3 1.8 5.9.3 2.8 1 5.4 1.4 5.7.5.3.9 1.6.9 3 0 3.1 2.7 11.8 5 15.9 2.1 3.9 9.4 8.7 16.7 11 3.2 1 6.7 2.1 7.8 2.6 2.2.8 4.1 1.3 15.5 3.5 4.1.8 9.3 1.9 11.5 2.4 3.8.9 12.6 2.7 17 3.5 6.1 1.2 12.5 2.5 16.5 3.5 6.5 1.5 14 2.8 26.5 4.5 10.6 1.5 17.6 2.5 31.5 4.7 10.6 1.6 38.8 2.1 45 .8 12.4-2.6 30.8-9.3 37.5-13.6 13.9-8.8 29.6-31 29.5-41.6 0-2.6-.4-5-1-5.3-.5-.3-1-1.3-1-2 0-7.2-15.8-26.2-25.7-31-3.2-1.6-6.6-3.2-7.5-3.7-1-.4-2.2-.8-2.8-.8-.5 0-3.5-1.2-6.7-2.6-9.1-4.1-9.5-4.2-14.3-5-2.5-.3-6.3-1.5-8.5-2.4-4-1.8-7.7-3.1-10.5-3.6-1.8-.4-9.5-2.1-15.2-3.4-4.1-.9-13-2.7-17.3-3.5-6.6-1.3-12.5-2.5-16-3.4-2.2-.6-6.5-1.5-9.5-2.1-3-.6-7.4-1.5-9.8-2-2.3-.6-6-1-8.1-1-2.2 0-5.2-.5-6.6-1-1.5-.6-7.9-1-14.3-1.1-9 0-12.5.3-14.9 1.6-1.8.9-3.5 2-3.8 2.6-.4.5-1.5.9-2.6.9-2.1 0-2.1-.1-1.3-58.3.8-66.8.9-65.5-6.7-74-4.3-4.8-15.8-13.7-17.8-13.7-.5 0-1.4-.6-2-1.4-1.3-1.6-35.1-18.6-37-18.6-.6 0-1.1-.3-1.1-.8 0-.8-9-4.2-11.4-4.2-1.8 0-7.6-3.1-12.1-6.4-4.3-3.2-14.8-9.3-17.6-10.1-1.3-.4-4.2-1.5-6.4-2.5s-6.2-2.5-9-3.5c-2.7-.9-5.9-2-7-2.5-1.1-.5-3.6-1.2-5.5-1.6-1.9-.3-4.1-1-5-1.5-2.8-1.6-16.6-5.9-18.8-5.9-1.2 0-4.1-.4-6.4-1-2.4-.5-7-1.5-10.3-2.1-3.3-.7-6.9-1.8-8.1-2.5-2.7-1.6-15.4-5.8-22.4-7.4-3-.6-7.1-1.6-9.1-2.1-3.8-.9-44.2-1.3-45.1-.4zm-29 14.7c-1.1.8-1 1.1.2 1.5.8.4 2.7 1.9 4.2 3.5 1.4 1.5 3.2 2.8 4 2.8.8 0 2.3.7 3.4 1.5 2.6 1.9 3.5 1.9 2.7-.3-.6-1.6-.5-1.6 1.3-.1 2.9 2.4 10.8 4.2 14.9 3.5 2-.4 4.2-.3 4.8.2 1.9 1.5 6.7 2.4 6.7 1.2 0-.5.5-1 1.1-1 .5 0 .8.4.5.9-.6.8 5.9 2.7 7.8 2.2 1.6-.4 10.6 2.2 10.6 3.1 0 .4-.4.8-.9.8-1.3 0-2 2.5-1.1 4 .7 1.1 1.4 1 4.2-.2 4.1-1.9 9.8-3 9.8-1.9 0 .4 1.1.6 2.4.4 2.4-.5 13.6 3.1 14.6 4.6.3.4 3 1.3 6 2 10.6 2.3 12.6 2.9 22.4 7 5.5 2.3 10.6 3.9 11.4 3.6.9-.3 1.2 0 .9.8-.3.9.7 1.2 3.7 1 3.3-.2 3.6-.1 1.6.6l-2.5.8 2.8 1.2c1.6.6 3.5 1.1 4.3 1.1.8 0 1.4.4 1.4 1 0 .5.7 1 1.5 1s1.5.7 1.5 1.7c0 .9.3 1.4.6 1 .9-.9 10.2 3 12.6 5.3 1.2 1.1 3 2 3.9 2 1 0 2.2.7 2.7 1.6.6 1.1 2.4 1.6 6.5 1.6 3.1 0 5.4.5 5.1.9-.3.5-1.5.9-2.8.9-2.6 0-17.3 4.9-24.4 8.2-12.9 5.9-26.2 17.8-31.7 28.5-3.6 7-8.3 13.5-8.7 12.1-.4-1-3.5-1.3-12.9-1.3l-12.4-.1-11.2-5.7c-6.1-3.1-11.9-5.7-12.7-5.7-1.5 0-9.4-2.4-13.1-4-5.7-2.4-12.7-4.3-18.5-5-3.6-.4-8.5-1.3-11-1.9-2.4-.7-5.3-1-6.3-.7-1.1.2-1.6.2-1.3-.1.3-.4-2.8-2.3-6.9-4.4-4.1-2-8.1-4.2-8.8-4.7-.7-.6-3.5-1.5-6.2-2-4.1-.8-4.6-1.1-2.7-1.7 1.2-.4 2.2-1.1 2.2-1.6s2.6-2.7 5.8-5.1c3.1-2.3 6.5-5 7.5-5.9 1-.9 3.6-2 5.9-2.3 3.8-.6 13.8-6.2 15.3-8.6 1.4-2.2-.3-2-6.6.9-3.5 1.6-8.7 3.8-11.5 4.8-8.1 3.1-20.4 12-21.8 15.8-.4 1.1-1 1.5-1.4 1-.4-.6-2.3-1.7-4.2-2.6-10.3-4.8-15.2-6.9-16.5-6.9-.8 0-3.6-1.1-6.3-2.5-6.8-3.5-13.9-6.5-15.4-6.5-.8 0-2.3-.7-3.4-1.5-1.2-.8-4.3-1.9-7-2.5-2.7-.6-5.1-1.5-5.4-1.9-.3-.5-3.9 0-8 1-6.8 1.7-9.2 3.2-10.3 6.3-.9 2.4-1.5-.3-2.2-9l-.7-9.1 4.3-4.1c2.4-2.2 6.4-5.6 8.9-7.4 5.9-4.4 22.7-14.8 24-14.8.6 0 1.8-.4 2.8-.9 1.6-.8 9-2.6 21.2-5 5.6-1.2 11.6-2.2 25.2-4.4 4.2-.7 8-1.6 8.3-1.9.3-.3 1.5-.3 2.6-.1 1.6.5 1.8.8.7 1.5zm187.9 59.4c-.3.3-1.2.4-1.9.1-.8-.3-.5-.6.6-.6 1.1-.1 1.7.2 1.3.5zm34.9 9.9c4.9.8 9.8 1.9 10.9 2.4 1.1.4 4.5 1.6 7.5 2.6 13.5 4.5 26 14.4 27.9 22.1.7 2.8 1.1 23.8 1.1 62.2v58l-5.7 4.8c-3.2 2.7-11.2 9.6-17.8 15.4-15.9 14.1-21.2 18-24.1 18-1.4 0-9.8 2.4-18.7 5.4-18.9 6.2-24.5 7.9-34.7 10.2-4.1.9-8.2 1.9-9 2.2-.8.3-4 1.1-7 1.8s-7.5 1.8-10 2.4c-9 2.2-21.1 4.2-22.5 3.6-1.2-.4-1.5-3.5-1.5-17.8 0-26.8-1.8-90.1-3.1-111.8-.9-14.4-.9-21.1-.1-25.7 2.7-15.4 18-37.3 30.3-43.5 3-1.4 8.1-3.4 11.4-4.3 3.3-.9 7.1-2.1 8.5-2.6 1.4-.5 5.2-1.3 8.5-1.9 3.3-.6 8.5-1.5 11.5-2.1 16.6-3 25.3-3.3 36.6-1.4zm59.2 51c0 6.4-.2 9.3-.8 8-.5-1.1-.9-6.3-1-11.5 0-5.2-.5-12.7-.9-16.5-.5-4.4-.4-7.2.2-7.6.5-.4.7-1.7.4-2.9-.3-1.2-.3-2.9.1-3.8.8-1.9 1.9 18.5 2 34.3zM18.7 237.2c1.2 1.3 3.5 3.5 5.2 5 1.7 1.5 3.1 3.5 3.1 4.3 0 1.1 1 1.5 3.6 1.5 1.9 0 4.2.7 5 1.5.9.8 3.1 1.5 5.1 1.5 3.6 0 15.1 2.6 16.8 3.9.6.4 4.6.8 9 .9 4.4.1 8.1.7 8.3 1.2.2.6 1.2 1 2.3 1 1 0 2.8.8 3.9 1.7 1 .9 4.3 2.3 7.2 3 2.9.8 5.6 2 6.1 2.8.4.8 1.3 1.5 1.9 1.5.6 0 2.5 1 4.2 2.3 1.7 1.3 3.9 2.6 4.9 3 .9.3 1.7 1.1 1.7 1.6s1 1.3 2.3 1.7c1.9.6 5.8 2.9 17.2 10.2 1.1.6 3.1 1.8 4.5 2.4 1.4.7 3.9 2.3 5.6 3.5 1.7 1.3 3.6 2.3 4.2 2.3.7 0 1.2.4 1.2 1 0 1.2 7.8 5.2 8.9 4.5.5-.2 1.4.2 2.1 1 .6.7 1.7 1.2 2.4.9.8-.3 2 .2 2.9 1 .9.9 2.4 1.6 3.5 1.6s2.2.6 2.5 1.4c.4.9 1.4 1.2 2.6.9 1.3-.3 2.4.2 3.3 1.6.7 1.2 1.8 2.1 2.4 2.1.6 0 2.3.9 3.7 2 1.8 1.4 2.6 1.7 2.9.8.3-.8 2.1.4 4.6 2.9 2.2 2.4 5 4.3 6.1 4.3 1.8 0 2.1.6 2.1 4 0 3.6.3 4 2.4 4 3 0 4.1 1.4 2.2 2.9-1 .9-1.6.8-2.6-.4-1.8-2.2-2.5-1.9-4 2-1.3 3.3-1.6 3.5-6.4 3.6-2.8.1-5.5 0-6.1-.2-.5-.2-2.6-.3-4.5-.4-1.9-.1-4.5-.6-5.7-1.3-1.2-.7-3.1-1.2-4.2-1.2-1.2 0-2.1-.4-2.1-1 0-.5-1.9-1.4-4.2-2-2.4-.6-5.6-1.7-7.3-2.5-1.6-.8-5.1-1.7-7.7-2-2.7-.4-4.8-1-4.8-1.5 0-.7-9.2-3.9-16.3-5.6-1.5-.3-3-1-3.3-1.5-.3-.5-1.6-.9-3-.9s-3.6-.7-4.9-1.6c-1.4-.9-2.5-1.3-2.5-1 0 .4-1.7-.2-3.7-1.2-2.1-1.1-5.8-2.6-8.3-3.3-2.5-.7-4.7-1.7-5-2.1-.3-.4-1.5-.9-2.6-1.1-1.1-.1-4.3-1.7-7.2-3.5-2.9-1.7-5.6-3.2-6.1-3.2s-1.6-.6-2.3-1.3c-.7-.6-2.4-1.8-3.8-2.5s-5.5-4-9-7.2c-3.6-3.3-6.9-6-7.5-6-.5 0-2.3-1.5-4-3.2-1.6-1.7-4.3-3.6-6-4.4-1.6-.7-3.9-2.1-5-3.2-1.2-1-3.3-2.2-4.7-2.5-1.5-.4-3.3-1.4-4.2-2.2-.8-.8-3.5-1.8-6-2.1-2.9-.4-4.7-1.2-4.9-2.3-.3-.9-.5-.4-.6 1.1-.1 3.5-1.7 4.4-2.5 1.5-.8-3-.7-19.5.1-28.2.6-6.4.7-6.8 1.8-4.3.6 1.5 2 3.7 3.2 5zm199.3 96c0 2.7-.4 4.8-1 4.8s-1-2.7-1-6.3c0-4.4.3-5.8 1-4.7.5.8 1 3.6 1 6.2zm-3 .8c0 1.6-.4 3-1 3-.5 0-1-1.4-1-3 0-1.7.5-3 1-3 .6 0 1 1.3 1 3zm-3.3 2.2c-.3.7-.5.2-.5-1.2s.2-1.9.5-1.3c.2.7.2 1.9 0 2.5zM391 345c0 1.1-.4 2-.9 2s-.7-.9-.4-2c.3-1.1.7-2 .9-2 .2 0 .4.9.4 2zm50.5 3c44 7.7 50.7 9 67 13.1 2.2.6 6.5 1.5 9.5 2 3 .6 6.4 1.4 7.5 1.8 1.1.5 5.4 1.7 9.5 2.6 4.1 1 8.2 2.2 9 2.6.8.4 4.2 1.8 7.5 3 16 6 26 13.4 29.1 21.5 2.4 6.2 1.4 13.6-3 22.6-7.3 15.1-18.8 25.1-32.6 28.4-9.8 2.4-35.9 1.5-48-1.6-1.9-.5-5.5-1.3-8-1.9-32-7.4-36-8.4-42-10.6-1.9-.7-7.5-2.3-12.4-3.5-5-1.2-9.7-2.6-10.5-3.1-1.7-.9-13.8-4.6-24.1-7.3-3.6-1-7.3-2.2-8.2-2.7-1-.5-2.4-.9-3.3-.9-1.5 0-24.3-7.3-28-8.9-1.1-.5-5.3-2.4-9.2-4.2-4-1.7-7.3-3.8-7.3-4.5 0-.7 5.3-5.5 11.8-10.7 6.4-5.3 12.6-10.4 13.7-11.4 4.3-3.9 10.3-8.2 17.5-12.3 4.1-2.3 11.1-6.8 15.5-10 4.4-3.1 8.7-6 9.5-6.3 2.4-1.1 16.6.1 29.5 2.3zm-86.9 62.5c11.8 5.8 39.3 15.9 50.4 18.6 4.7 1.1 9.4 2.4 10.5 2.8 1.1.5 4.7 1.6 8 2.7 5.9 1.8 7.5 2.4 11.5 4.4 1 .5 2.6.7 3.5.4.8-.3 1.5-.2 1.5.4 0 .5-1.1 1.3-2.5 1.6-3.4.9-3.2 2.8.3 2l2.7-.6-2.8 2c-2.6 1.7-2.7 2-1 2.7 1 .4 2.9.7 4.3.7 1.4-.1 1.9.1 1.2.4-.6.3-1 1-.6 1.5.7 1.2-4 1.1-9.6-.2-2.5-.6-6.5-1.4-9-1.9s-7.6-1.6-11.5-2.5c-7-1.6-16.5-3.4-28.5-5.4-21.1-3.5-27.4-5.5-32.6-10.7-3-2.9-4.7-5.8-5.8-9.7-1.9-6.5-2.1-13.7-.4-13.7.6 0 5.3 2 10.4 4.5zm231.9 13.2c-3.6 8-6 11.6-10.6 15.8-6 5.4-14.7 10.7-17.1 10.3-1.7-.2-1.2-.9 2.9-3.5 6.5-4.2 19.2-17.6 22.9-24.1 3.7-6.7 5-5.7 1.9 1.5zm-140 18.3c.3.5 2 1 3.7 1 4.1 0 3.3.6-1.7 1.3-2.7.4-3.5.3-2.5-.3 1.1-.7.7-1-1.8-1-2 0-3.1-.4-2.7-1 .3-.6 1.5-1 2.5-1s2.2.4 2.5 1zm2.5 10.1c0 1-.7 1.1-3.7.3-3.4-.9-2.8-2.1.7-1.6 1.7.2 3 .8 3 1.3zm102.5 1.2c-2.2 1.4-6 2.7-17.5 5.8-7.8 2.1-15.8 2.2-26 .1-4.1-.9-4.2-1-1.2-1.1 2-.1 3.2-.6 3.2-1.5 0-1.5 9.4-2.5 24.9-2.7 5.3-.1 10.7-.5 12.1-.9 1.4-.4 3.4-.8 4.5-.9 1.9-.1 1.9-.1 0 1.2zm-96.2.4c-.7.2-1.9.2-2.5 0-.7-.3-.2-.5 1.2-.5s1.9.2 1.3.5z"/><path d="M114.5 150.6c-16.5 4-23.5 6.6-31.3 11.5-3.5 2.1-6.6 3.9-7 3.9-1.7.1-15.2 14.8-15.2 16.5 0 1.7 3.8-.2 7.8-3.9 6.8-6.3 15-11.2 25.5-15.3 28.3-10.8 30.7-11.9 30.7-13.5 0-1.2-3.7-.9-10.5.8zM148.8 177c-6.7 7-8 9-5.6 9 1.4 0 15.8-13.9 15.8-15.2 0-2.5-4.4.1-10.2 6.2zM225.9 186.3c-1.4.8-4.7 2.1-7.4 3-10.1 3.5-27.5 16.2-27.5 20.1 0 2.4 1.2 2 8.1-2.9 12.4-8.7 24.3-14.4 30.2-14.5.9 0 2.7-1 3.8-2.1l2.2-2.2-2.4-1.3c-3-1.7-3.8-1.7-7-.1zM248.4 194.5c-1 .8-2.8 1.5-4 1.5-1.1 0-4 1.3-6.5 2.9-8.2 5.3-20.9 19.7-14.7 16.7 4.8-2.3 28.4-19.5 28.6-20.9.4-2.1-.8-2.2-3.4-.2zM312.2 222.7c.2 1 1.2 1.8 2.3 1.8 1.1 0 2.1-.8 2.3-1.8.3-1.3-.3-1.7-2.3-1.7-2 0-2.6.4-2.3 1.7zM281.4 224c-5 2.2-5.9 3.4-3.9 5 3.4 2.8 12.5-1 12.5-5.2 0-2.3-3.1-2.3-8.6.2zM348.3 231.5c-.7 1.9 1.7 4.6 6.2 7.1 3.2 1.7 3.6 1.7 5.1.2 2.2-2.1 1.3-4.3-2.8-6.8-3.9-2.4-7.6-2.6-8.5-.5zM329.6 236.3c-2.7 2-1.6 4.9 2.6 7.2 3.5 1.8 3.9 1.9 5.4.3 2.2-2.2 1.2-6.1-2.1-7.6s-3.7-1.5-5.9.1zM285 237.5c-1.5 1.8-.6 4.5 1.3 4.5 2 0 4-2.7 3.3-4.5-.7-1.9-3-1.9-4.6 0zM257.6 244.3c-2.1 1.6-1.8 5 .5 5.5.9.2 2.4-.5 3.3-1.4 3.4-3.3.1-6.9-3.8-4.1zM314.1 256.4c-1.9 2.3-1 6.1 1.4 6.1 1.4 0 2.1-.8 2.3-2.6.4-3.3-2-5.6-3.7-3.5zM236.6 259.9c-3.7 4-.5 9.2 3.4 5.6 2.5-2.3 2.6-5.1.1-6.4-1.4-.8-2.2-.6-3.5.8zM361.9 258.7c-.6 3.7 2.1 8.3 4.8 8.3 1.8 0 1.7-4-.3-6.8-1.4-2.1-4.3-3-4.5-1.5zM259.2 271.2c-1.5 1.5.3 4.8 2.7 4.8 2.3 0 3.5-2.8 2-4.6-1.4-1.7-3.1-1.8-4.7-.2zM268.7 285.8c-2.6 4.6-.6 9.5 3.3 8.5 3-.8 5.4-4.8 4.2-6.9-1-1.7-6.8-3-7.5-1.6zM365.4 286.5c-.7 1.7 1.4 7.5 2.6 7.5 1.2 0 2-4.2 1.4-6.7-.7-2.6-3.2-3.1-4-.8zM235.7 287.7c-1.1 1-.8 4.1.4 4.9 1.6.9 4.3-2.1 3.6-4-.7-1.6-2.8-2.1-4-.9zM327.3 302.6c-.8 2 1.3 4.2 2.7 2.8 1.2-1.2.3-4.4-1.1-4.4-.5 0-1.2.7-1.6 1.6zM235.7 305.6c-1.1 1.1-.8 5.2.3 5.9 1.7 1 4.1-1.6 3.8-3.9-.3-2.1-2.8-3.3-4.1-2zM358.7 307.7c-.9.8-.9 8.6-.1 10.7.3.9 1.1 1.6 1.8 1.6 1.3 0 5.6-6.4 5.6-8.3 0-2.9-5.4-5.9-7.3-4zM243.6 320.5c-1.1 2.9-.6 7.2.9 8.5 1.2 1 1.6.7 2.5-1.6.6-1.5 1-3.9.8-5.3-.3-2.9-3.2-4-4.2-1.6zM357.1 345.3c-1.4 1.7-.6 4.3 1.6 5.2 2.2.8 3.5-.8 3.1-3.6-.4-2.8-3-3.6-4.7-1.6zM302.7 348.6c-1.7 1.7-.5 3.4 2.4 3.4 2.4 0 3-.4 2.7-1.8-.3-1.7-3.8-2.9-5.1-1.6zM362.9 359.2c-.6 1.3-2.3 3.5-3.7 5-2.3 2.5-2.4 2.8-.7 2.8 2.7 0 7.5-4.9 7.5-7.7 0-2.9-1.6-3-3.1-.1zM261.5 358.9c-.7 1.3 1.7 2.4 4 1.9.9-.1 1.6-.8 1.6-1.3 0-1.4-4.8-1.9-5.6-.6zM341.1 360.8c-.7 1.4-.7 2.4.3 3.8 1.2 1.6 1.6 1.6 3 .4 2.1-1.7 1.7-5.4-.6-5.8-.9-.2-2.1.5-2.7 1.6zM260.1 377.9c-5.4 1.5-2.1 4.9 3.4 3.5 1.7-.4 2.5-1.2 2.3-2.3-.4-1.8-2.2-2.2-5.7-1.2zM269.3 382.7c-1.7.6-1.6 3.2.1 3.9 1.9.7 5.6-1.3 5.6-3.1 0-1.5-3.1-1.9-5.7-.8zM283.4 386.5c-.8 2.1.4 3.5 3.1 3.5 2.6 0 3.9-2.2 2.2-3.9-1.6-1.6-4.7-1.4-5.3.4zM465.2 356.2c.2 1.9 1 2.4 4.1 2.6 2.4.2 3.7-.1 3.7-.9 0-1.7-3.1-3.8-5.8-3.9-1.9 0-2.3.5-2 2.2zM415 367.5c-2.2 2.4-2.3 2.6-.7 4.2 1.6 1.6 1.9 1.6 4.3-.9 1.7-1.6 2.4-3.2 2.1-4.2-.9-2.3-3-2-5.7.9zM394.6 368.9c-2.2 2.4-1.5 5.1 1.2 5.1 2.8 0 4.8-2.8 3.6-4.8-1.6-2.4-2.9-2.5-4.8-.3zM540 376.3c0 2.9 3.4 6.2 5.5 5.4 2.2-.9 1.8-4.4-.7-6.1-3.2-2.2-4.8-2-4.8.7zM432.3 377.6c-.4 1.1.1 2.2 1.2 3.1 1.6 1.1 2.1 1.1 3.4-.1 1.2-1.2 1.2-1.8.1-3-1.6-2.1-3.9-2-4.7 0zM464.2 378.7c-4.7 4.1-2.8 9.2 2.6 7.2 4.1-1.5 4.7-8.9.8-8.9-.8 0-2.3.8-3.4 1.7zM370.7 383.1c-1.8 1.1-2.4 6.4-.7 7.4 1.2.7 5-3 5-4.9 0-2.2-2.3-3.6-4.3-2.5zM485 391.2c-2.5 2.7-2.5 3.5-.2 4.7 2.7 1.4 5.2-.5 5.2-3.9 0-3.6-2-3.9-5-.8zM519 392.9c-1.6 3.1-1.2 5.1 1 5.1 2.5 0 4.1-3 2.9-5.3-1.3-2.2-2.6-2.2-3.9.2zM404.6 394.5c-.3 1 .3 1.7 2 2.1 2.8.7 5-.8 4-2.5-1-1.6-5.3-1.3-6 .4zM384 401.4c0 2.2 4 6.6 6.1 6.6 2.7 0 2.4-1.1-1.4-4.8-3.6-3.5-4.7-3.9-4.7-1.8zM559.7 401.7c-1.2 1.1-.7 7.9.6 9.8 3 3.9 5-2 2.7-7.9-.9-2.6-2.1-3.2-3.3-1.9zM419.8 404.1c-2.9 1.6-2.2 3.9 1.1 3.9 3.1 0 4.6-2.1 2.8-3.9-1.3-1.3-1.7-1.3-3.9 0zM540.7 407.5c-.9 2-1.7 4-1.7 4.5 0 1.9 3.7 1 5.9-1.4 1.9-2 2.1-2.8 1.2-4.5-1.7-3.1-3.5-2.6-5.4 1.4zM399.2 407.2c-1.6 1.6.3 3.8 3.3 3.8 2.6 0 5-2.4 4-4-.8-1.4-5.8-1.3-7.3.2zM490.7 410.8c-3.4 3.5-3.4 4.2.1 4.2 3.8 0 5.4-1.3 5-4-.5-3.4-2-3.4-5.1-.2zM439.5 417.9c-.3.6.3 1.5 1.4 2.1 2.1 1.1 3.7-.2 2.6-2-.8-1.3-3.2-1.3-4-.1zM519.8 423.6c-3.1 1.6-3.6 3.2-1.3 4 1.9.8 6.5-2.2 6.5-4.1 0-1.9-1.7-1.8-5.2.1zM476.4 427.2c-1 1.6 2.5 3.8 6.3 3.8 2.3 0 3.3-.5 3.3-1.5 0-2.7-8.1-4.7-9.6-2.3zM428 439c0 .5.5 1 1 1 .6 0 1-.5 1-1 0-.6-.4-1-1-1-.5 0-1 .4-1 1zM433 439.4c0 .2.7.7 1.6 1 .8.3 1.2.2.9-.4-.6-1-2.5-1.4-2.5-.6z"/></svg>